<?xml version="1.0" encoding="utf-8"?>
<!-- Generator: Adobe Illustrator 23.0.2, SVG Export Plug-In . SVG Version: 6.00 Build 0)  -->
<svg version="1.1" id="Layer_1" xmlns="http://www.w3.org/2000/svg" xmlns:xlink="http://www.w3.org/1999/xlink" x="0px" y="0px"
	 viewBox="0 0 300 150" style="enable-background:new 0 0 300 150;" xml:space="preserve">
<style type="text/css">
	.st0{fill:#009DE0;}
	.st1{fill:#09A0D8;}
	.st2{fill:#12A3D0;}
	.st3{fill:#1BA5C7;}
	.st4{fill:#24A8BF;}
	.st5{fill:#2DABB7;}
	.st6{fill:#36AEAF;}
	.st7{fill:#3FB0A6;}
	.st8{fill:#48B39E;}
	.st9{fill:#51B696;}
	.st10{fill:#5AB98E;}
	.st11{fill:#64BB85;}
	.st12{fill:#6DBE7D;}
	.st13{fill:#76C175;}
	.st14{fill:#7FC46D;}
	.st15{fill:#88C664;}
	.st16{fill:#91C95C;}
	.st17{fill:#9ACC54;}
	.st18{fill:#A3CF4C;}
	.st19{fill:#ACD143;}
	.st20{fill:#B5D43B;}
	.st21{fill:#BED733;}
	.st22{display:none;}
	.st23{display:inline;}
	.st24{display:inline;clip-path:url(#SVGID_2_);}
	.st25{fill:none;stroke:#009DE0;stroke-width:0.5;stroke-linecap:round;stroke-linejoin:round;stroke-miterlimit:10;}
	.st26{fill:none;stroke:#09A0D8;stroke-width:0.5;stroke-linecap:round;stroke-linejoin:round;stroke-miterlimit:10;}
	.st27{fill:none;stroke:#12A3D0;stroke-width:0.5;stroke-linecap:round;stroke-linejoin:round;stroke-miterlimit:10;}
	.st28{fill:none;stroke:#1BA5C7;stroke-width:0.5;stroke-linecap:round;stroke-linejoin:round;stroke-miterlimit:10;}
	.st29{fill:none;stroke:#24A8BF;stroke-width:0.5;stroke-linecap:round;stroke-linejoin:round;stroke-miterlimit:10;}
	.st30{fill:none;stroke:#2DABB7;stroke-width:0.5;stroke-linecap:round;stroke-linejoin:round;stroke-miterlimit:10;}
	.st31{fill:none;stroke:#36AEAF;stroke-width:0.5;stroke-linecap:round;stroke-linejoin:round;stroke-miterlimit:10;}
	.st32{fill:none;stroke:#3FB0A6;stroke-width:0.5;stroke-linecap:round;stroke-linejoin:round;stroke-miterlimit:10;}
	.st33{fill:none;stroke:#48B39E;stroke-width:0.5;stroke-linecap:round;stroke-linejoin:round;stroke-miterlimit:10;}
	.st34{fill:none;stroke:#51B696;stroke-width:0.5;stroke-linecap:round;stroke-linejoin:round;stroke-miterlimit:10;}
	.st35{fill:none;stroke:#5AB98E;stroke-width:0.5;stroke-linecap:round;stroke-linejoin:round;stroke-miterlimit:10;}
	.st36{fill:none;stroke:#64BB85;stroke-width:0.5;stroke-linecap:round;stroke-linejoin:round;stroke-miterlimit:10;}
	.st37{fill:none;stroke:#6DBE7D;stroke-width:0.5;stroke-linecap:round;stroke-linejoin:round;stroke-miterlimit:10;}
	.st38{fill:none;stroke:#76C175;stroke-width:0.5;stroke-linecap:round;stroke-linejoin:round;stroke-miterlimit:10;}
	.st39{fill:none;stroke:#7FC46D;stroke-width:0.5;stroke-linecap:round;stroke-linejoin:round;stroke-miterlimit:10;}
	.st40{fill:none;stroke:#88C664;stroke-width:0.5;stroke-linecap:round;stroke-linejoin:round;stroke-miterlimit:10;}
	.st41{fill:none;stroke:#91C95C;stroke-width:0.5;stroke-linecap:round;stroke-linejoin:round;stroke-miterlimit:10;}
	.st42{fill:none;stroke:#9ACC54;stroke-width:0.5;stroke-linecap:round;stroke-linejoin:round;stroke-miterlimit:10;}
	.st43{fill:none;stroke:#A3CF4C;stroke-width:0.5;stroke-linecap:round;stroke-linejoin:round;stroke-miterlimit:10;}
	.st44{fill:none;stroke:#ACD143;stroke-width:0.5;stroke-linecap:round;stroke-linejoin:round;stroke-miterlimit:10;}
	.st45{fill:none;stroke:#B5D43B;stroke-width:0.5;stroke-linecap:round;stroke-linejoin:round;stroke-miterlimit:10;}
	.st46{fill:none;stroke:#BED733;stroke-width:0.5;stroke-linecap:round;stroke-linejoin:round;stroke-miterlimit:10;}
	.st47{fill:#202E39;}
	.st48{fill:#5EA215;}
</style>
<g id="flattened">
	<g>
		<g>
			<polygon class="st0" points="82.5,90.4 81.8,90.4 73.6,98.7 75.2,97.7 			"/>
			<polygon class="st1" points="78.4,90.4 77.7,90.4 63.9,104.2 65.6,103.3 			"/>
			<polygon class="st1" points="87.9,80.3 83.7,84.4 84.4,84.4 87.9,81 			"/>
			<path class="st2" d="M73.7,90.4l-1.5,1.5c0.1,0.1,0.2,0.3,0.2,0.5l2-2H73.7z"/>
			<path class="st2" d="M57.3,107.5l12.6-12.6c-0.2-0.1-0.3-0.1-0.5-0.2l-12.6,12.6L57.3,107.5z"/>
			<path class="st2" d="M87.9,76.2l-4,4c0,0.3,0,0.6-0.1,0.8l4.2-4.2V76.2z"/>
			<polygon class="st3" points="54.7,106 67.5,93.2 67.1,92.9 54.2,105.8 			"/>
			<path class="st3" d="M87.9,72.1l-6.3,6.3c0.2,0,0.5,0,0.7,0l5.6-5.6V72.1z"/>
			<polygon class="st4" points="52.1,104.5 65.3,91.3 64.9,91 51.7,104.3 			"/>
			<polygon class="st4" points="87.9,68.1 71.5,84.4 72.2,84.4 87.9,68.8 			"/>
			<polygon class="st5" points="87.9,64 67.4,84.4 68.1,84.4 87.9,64.7 			"/>
			<polygon class="st5" points="51.5,101.1 62.1,90.4 61.4,90.4 51.5,100.4 			"/>
			<polygon class="st6" points="87.9,59.9 63.4,84.4 64.1,84.4 87.9,60.6 			"/>
			<polygon class="st6" points="51.5,97 58.1,90.4 57.4,90.4 51.5,96.3 			"/>
			<polygon class="st7" points="87.9,55.8 59.3,84.4 60,84.4 87.9,56.5 			"/>
			<path class="st8" d="M85.4,54.2L62.2,77.4c-0.1,0.4-0.3,0.8-0.5,1.2l24.1-24.1L85.4,54.2z"/>
			<path class="st9" d="M63,72.5v0.1c0,0.2,0,0.4,0,0.6L83.3,53l-0.4-0.3L63,72.5z"/>
			<polygon class="st10" points="63,68.4 63,69.1 80.7,51.5 80.2,51.2 			"/>
			<polygon class="st10" points="36.9,95.7 37.8,94.7 37.8,93.7 36.2,95.3 			"/>
			<polygon class="st11" points="63,64.3 63,65.1 78.1,50 77.6,49.7 			"/>
			<polygon class="st11" points="34,94.1 37.7,90.4 37,90.4 33.6,93.8 			"/>
			<polygon class="st12" points="31.4,92.6 33.6,90.4 32.9,90.4 31,92.3 			"/>
			<polygon class="st12" points="63,60.3 63,61 75.5,48.5 75.1,48.3 			"/>
			<polygon class="st13" points="37.8,81.4 34.8,84.4 35.5,84.4 37.8,82.1 			"/>
			<polygon class="st13" points="71.3,47.9 63,56.2 63,56.9 72,47.9 			"/>
			<polygon class="st14" points="67.3,47.9 63,52.1 63,52.8 68,47.9 			"/>
			<polygon class="st14" points="31.5,84.4 37.8,78.1 37.8,77.4 30.7,84.4 			"/>
			<polygon class="st15" points="27.7,84.1 37.8,74 37.8,73.3 27.7,83.4 			"/>
			<polygon class="st16" points="27.7,80 37.8,69.9 37.8,69.2 27.7,79.3 			"/>
			<polygon class="st17" points="27.7,76 37.8,65.8 37.8,65.1 27.7,75.3 			"/>
			<polygon class="st18" points="27.7,71.2 27.7,71.9 37.8,61.8 37.8,61.1 37.8,61.1 			"/>
			<polygon class="st19" points="27.7,67.8 37.8,57.7 37.8,57 27.7,67.1 			"/>
			<polygon class="st20" points="27.7,63.7 37.8,53.6 37.8,52.9 27.7,63 			"/>
			<polygon class="st21" points="27.7,59.7 37.2,50.2 35.5,51.1 27.7,59 			"/>
		</g>
		<g class="st22">
			<defs>
				<path id="SVGID_1_" d="M37.8,96.3l-10.1-5.9v0h10.1v2.4V96.3z M37.8,61.1V49.8l-10.1,5.9v28.8h10.1V61.1z M63,47.9v24.8
					c0,4.8-2.4,9.1-6,11.8h16.8l6.8-5.6c0.9-0.7,2.1-0.6,2.8,0.3c0.7,0.9,0.6,2.1-0.3,2.8l-3,2.5h7.8V55.6l-13.4-7.8H63z M71.8,91.5
					c0.9,0.7,1,2,0.3,2.8c-0.7,0.9-2,1-2.8,0.3l-5.1-4.2H53.7c-0.3,1.8-1.1,3.4-2.2,4.8v8.9l6.3,3.6l30.1-17.4v0H70.4L71.8,91.5z"/>
			</defs>
			<clipPath id="SVGID_2_" class="st23">
				<use xlink:href="#SVGID_1_"  style="overflow:visible;"/>
			</clipPath>
			<g class="st24">
				<line class="st25" x1="57.2" y1="115.4" x2="130.3" y2="42.3"/>
				<line class="st26" x1="53.1" y1="115.4" x2="126.2" y2="42.3"/>
				<line class="st27" x1="49.1" y1="115.4" x2="122.1" y2="42.3"/>
				<line class="st28" x1="45" y1="115.3" x2="118.1" y2="42.3"/>
				<line class="st29" x1="40.9" y1="115.3" x2="114" y2="42.3"/>
				<line class="st30" x1="36.9" y1="115.3" x2="109.9" y2="42.3"/>
				<line class="st31" x1="32.8" y1="115.3" x2="105.9" y2="42.3"/>
				<line class="st32" x1="28.7" y1="115.3" x2="101.8" y2="42.2"/>
				<line class="st33" x1="24.7" y1="115.3" x2="97.7" y2="42.2"/>
				<line class="st34" x1="20.6" y1="115.3" x2="93.7" y2="42.2"/>
				<line class="st35" x1="16.5" y1="115.3" x2="89.6" y2="42.2"/>
				<line class="st36" x1="12.4" y1="115.3" x2="85.5" y2="42.2"/>
				<line class="st37" x1="8.4" y1="115.3" x2="81.4" y2="42.2"/>
				<line class="st38" x1="4.3" y1="115.3" x2="77.4" y2="42.2"/>
				<line class="st39" x1="0.2" y1="115.3" x2="73.3" y2="42.2"/>
				<line class="st40" x1="-3.8" y1="115.3" x2="69.2" y2="42.2"/>
				<line class="st41" x1="-7.9" y1="115.3" x2="65.2" y2="42.2"/>
				<line class="st42" x1="-12" y1="115.3" x2="61.1" y2="42.2"/>
				<line class="st43" x1="-16" y1="115.2" x2="57" y2="42.2"/>
				<line class="st44" x1="-20.1" y1="115.2" x2="53" y2="42.2"/>
				<line class="st45" x1="-24.2" y1="115.2" x2="48.9" y2="42.2"/>
				<line class="st46" x1="-28.3" y1="115.2" x2="44.8" y2="42.1"/>
			</g>
		</g>
		<path class="st47" d="M52.8,40.6c0,0.7-0.6,1.3-1.3,1.3c-0.7,0-1.3-0.6-1.3-1.3s0.6-1.3,1.3-1.3C52.2,39.3,52.8,39.9,52.8,40.6z
			 M93.7,87.4c0,2-1.6,3.6-3.6,3.6h-2l-30,17.3c-0.1,0.1-0.2,0.1-0.3,0.1s-0.2,0-0.3-0.1l-5.3-3.1v6.2c0,0.3-0.3,0.6-0.6,0.6
			c-1.6,0-3-1-3.9-2.4v4.4c0,0.3-0.3,0.6-0.6,0.6c-1.6,0-3-0.7-3.9-1.8v3.8c0,0.3-0.3,0.6-0.6,0.6c-2.9,0-5.2-2.3-5.2-5.2V96.6
			l-9.8-5.7l0,0c-0.2-0.1-0.3-0.3-0.3-0.5c0-0.3,0.3-0.6,0.6-0.6l0,0h9.5V85h-9.5c-0.3,0-0.6-0.3-0.6-0.6V55.6
			c0-0.2,0.1-0.4,0.3-0.5l9.8-5.7v-1.5c0-8.4,6.8-15.2,15.2-15.2h21c8.4,0,15.2,6.8,15.2,15.2c0,0.3-0.3,0.6-0.6,0.6H76.8l11.4,6.6
			c0.2,0.1,0.3,0.3,0.3,0.5v28.1H90C92,83.8,93.7,85.4,93.7,87.4z M37.2,91H30l7.2,4.1v-2.3V91z M37.2,50.9L28.3,56v27.8h8.9V61.1
			V50.9z M74.3,48.5H63.7v24.1c0,4.4-1.9,8.4-4.9,11.1c0,0-0.1,0.1,0,0h14.8l6.6-5.4c0.5-0.4,1.2-0.6,1.9-0.6
			c0.7,0.1,1.3,0.4,1.8,0.9s0.7,1.2,0.6,1.9c-0.1,0.7-0.4,1.3-0.9,1.8l-1.7,1.4h5.4V56L74.3,48.5z M59.5,43.7h24.8
			c1,0,1.9,0.3,2.6,0.9c-1.5-6.1-7-10.6-13.5-10.6H59.5V43.7z M59.5,47.3h27.7c-0.3-1.3-1.5-2.4-2.9-2.4H59.5V47.3z M41.7,100.1
			h-3.3v12c0,2,1.4,3.6,3.3,3.9v-3.2v-3.3V100.1z M46.3,99.5c-1,0.3-2.2,0.5-3.3,0.5v9.4c0,2,1.4,3.6,3.3,3.9v-7.5V99.5z M50.9,96.8
			c-1,0.9-2.1,1.7-3.3,2.2v6.8c0,2,1.5,4.4,3.3,4.9V96.8z M53.2,88.3V58.5c0-0.3,0.3-0.6,0.6-0.6s0.6,0.3,0.6,0.6v26.7
			c4.7-2.2,7.9-7,7.9-12.5V48.5h-3.5c-0.3,0-0.6-0.3-0.6-0.6V34h-5.9c-7.7,0-13.9,6.2-13.9,13.9V61l0,0c0,0,0,0.1,0,0.1v37.7h4.3
			C48.5,98.8,53.2,94.1,53.2,88.3z M85.5,91H72.2c0.5,0.4,0.9,1.1,0.9,1.8c0.1,0.7-0.1,1.4-0.6,1.9s-1.1,0.9-1.8,0.9
			c-0.1,0-0.2,0-0.3,0c-0.6,0-1.2-0.2-1.7-0.6l-4.9-4h-9.7c-0.4,1.6-1.1,3.1-2.1,4.4v8.4l5.7,3.3L85.5,91z M57.2,85
			c-0.8,0.6-1.7,1.1-2.7,1.5v1.8c0,0.5,0,1-0.1,1.4h9.7c0.1,0,0.3,0,0.4,0.1l5.1,4.2c0.3,0.2,0.6,0.3,1,0.3c0.4,0,0.7-0.2,0.9-0.5
			c0.2-0.3,0.3-0.6,0.3-1s-0.2-0.7-0.5-0.9L70,90.9c-0.2-0.2-0.3-0.4-0.2-0.7c0.1-0.2,0.3-0.4,0.6-0.4H90c1.3,0,2.4-1.1,2.4-2.4
			S91.4,85,90,85h-10c-0.3,0-0.5-0.2-0.6-0.4c-0.1-0.2,0-0.5,0.2-0.7l3-2.5c0.3-0.2,0.5-0.6,0.5-0.9s-0.1-0.7-0.3-1
			C82.7,79.2,82.3,79,82,79c-0.4,0-0.7,0.1-1,0.3l-6.8,5.6C74.1,85,73.9,85,73.8,85H57.2"/>
	</g>
	<g>
		<g>
			<path class="st47" d="M111.6,79.7c-5.3,0-9.5-3-9.5-8.9v-8.7c0-5.9,4.2-8.9,9.4-8.9c2.7,0,5.4,0.9,7.7,2.5
				c0.2,0.1,0.2,0.3,0.1,0.5l-1.2,1.7c-0.1,0.2-0.4,0.2-0.6,0.1c-1.8-1.3-4-1.9-6-1.9c-4.1,0-6.3,2.4-6.3,6v8.7c0,3.7,2.3,6,6.3,6
				c2.3,0,4.7-0.8,6.6-2.2c0.2-0.2,0.4-0.1,0.5,0.1l1.2,1.7c0.1,0.3,0.1,0.4-0.1,0.6C117.5,78.9,114.5,79.7,111.6,79.7z"/>
			<path class="st47" d="M128.7,79.7c-3.5,0-5.4-2.3-5.4-6.6V54c0-0.3,0.1-0.4,0.4-0.4h2.1c0.3,0,0.4,0.1,0.4,0.4v19.1
				c0,2.8,1,3.9,2.8,3.9c0.4,0,1,0,1.6-0.1c0.3,0,0.4,0.1,0.4,0.4v1.8c0,0.3-0.1,0.4-0.4,0.5C130.1,79.7,129.3,79.7,128.7,79.7z"/>
			<path class="st47" d="M147.9,60.7c0.3,0,0.4,0.2,0.4,0.4v16.7c0,0.2-0.1,0.4-0.3,0.5c-2,0.9-4.4,1.4-6.8,1.4c-4.7,0-8-2.3-8-7.8
				V61.2c0-0.3,0.1-0.4,0.4-0.4h2.1c0.3,0,0.4,0.2,0.4,0.4v10.7c0,3.8,1.9,5.2,5,5.2c1.5,0,3-0.3,4.1-0.7V61.2
				c0-0.3,0.1-0.4,0.4-0.4H147.9z"/>
			<path class="st47" d="M160.1,60.3c4.6,0,7.8,2.8,7.8,7.6v4c0,5.4-3.3,7.8-8,7.8c-2.3,0-4.9-0.5-6.9-1.3c-0.3-0.1-0.3-0.3-0.3-0.5
				V54c0-0.3,0.1-0.4,0.4-0.4h2.1c0.3,0,0.4,0.1,0.4,0.4v7.5C156.9,60.8,158.5,60.3,160.1,60.3z M165,72v-4c0-3.5-1.8-5-5.1-5
				c-1.7,0-3.1,0.5-4.3,1.3v12.2c1.1,0.4,2.7,0.7,4.2,0.7C163.1,77.1,165,75.7,165,72z"/>
			<path class="st47" d="M187.7,79.3c-0.2,0-0.4-0.1-0.5-0.3l-9.1-24.9c-0.1-0.3,0-0.5,0.3-0.5h2.4c0.2,0,0.4,0.1,0.5,0.3l5.2,14.7
				c0.9,2.4,1.7,4.9,2.6,7.3h0.1c0.9-2.4,1.7-4.8,2.5-7.2l5.3-14.8c0.1-0.2,0.3-0.3,0.5-0.3h2.4c0.3,0,0.4,0.2,0.3,0.5L191.2,79
				c-0.1,0.2-0.3,0.3-0.5,0.3H187.7z"/>
			<path class="st47" d="M205,57.3c-1,0-1.8-0.8-1.8-1.8c0-1,0.8-1.8,1.8-1.8s1.8,0.7,1.8,1.8C206.8,56.5,206,57.3,205,57.3z
				 M203.9,79.3c-0.3,0-0.4-0.1-0.4-0.4V61.2c0-0.3,0.1-0.4,0.4-0.4h2.1c0.3,0,0.4,0.2,0.4,0.4v17.8c0,0.3-0.1,0.4-0.4,0.4H203.9z"
				/>
			<path class="st47" d="M217.6,60.3c4.4,0,7.2,2.3,7.2,7v10.8c0,0.2-0.1,0.4-0.3,0.5c-1.7,0.6-4.2,1.2-6.9,1.2
				c-4,0-7.7-1.6-7.7-5.9c0-3.8,3.1-5.7,7.7-5.7c1.5,0,3.1,0.2,4.3,0.4v-1.2c0-2.9-1.2-4.4-4.3-4.4c-2,0-3.9,0.6-5.1,1.3
				c-0.2,0.1-0.4,0.1-0.5-0.1l-1-1.5c-0.1-0.2-0.1-0.4,0-0.5C212.4,61.1,214.8,60.3,217.6,60.3z M217.5,77.1c1.6,0,3.2-0.3,4.3-0.6
				v-5.4c-1.2-0.2-2.8-0.4-4.3-0.4c-3.3,0-4.8,1.2-4.8,3.2C212.7,76,214.7,77.1,217.5,77.1z"/>
			<path class="st47" d="M235.3,79.7c-2.5,0-5-0.7-7.1-2.3c-0.2-0.1-0.2-0.4-0.1-0.6l1-1.7c0.1-0.3,0.3-0.3,0.6-0.1
				c1.7,1.3,3.7,2,5.8,2c2.4,0,4.2-1,4.2-2.9c0-2-2.2-2.5-4.2-2.9c-2.6-0.5-7-1.5-7-5.7c0-3.7,3.5-5.3,7.1-5.3
				c2.3,0,4.3,0.6,6.3,1.7c0.3,0.1,0.3,0.3,0.1,0.5l-1,1.6c-0.1,0.2-0.3,0.3-0.5,0.1c-1.5-0.8-3.2-1.3-5-1.3c-2.5,0-4,1-4,2.6
				c0,2,2.1,2.5,4.7,3c2.9,0.6,6.7,1.4,6.7,5.4C242.6,77.8,239.5,79.7,235.3,79.7z"/>
			<path class="st47" d="M253.1,60.3c4.4,0,7.2,2.3,7.2,7v10.8c0,0.2-0.1,0.4-0.3,0.5c-1.7,0.6-4.2,1.2-6.9,1.2
				c-4,0-7.7-1.6-7.7-5.9c0-3.8,3.1-5.7,7.7-5.7c1.5,0,3.1,0.2,4.3,0.4v-1.2c0-2.9-1.2-4.4-4.3-4.4c-2,0-3.9,0.6-5.1,1.3
				c-0.2,0.1-0.4,0.1-0.5-0.1l-1-1.5c-0.1-0.2-0.1-0.4,0-0.5C248,61.1,250.4,60.3,253.1,60.3z M253,77.1c1.6,0,3.2-0.3,4.3-0.6v-5.4
				c-1.2-0.2-2.8-0.4-4.3-0.4c-3.3,0-4.8,1.2-4.8,3.2C248.3,76,250.3,77.1,253,77.1z"/>
			<path class="st47" d="M270.8,77c0.4,0,1.1,0,1.7-0.1c0.3,0,0.4,0.1,0.4,0.4v1.9c0,0.2-0.1,0.4-0.4,0.4c-0.6,0-1.5,0.1-1.9,0.1
				c-3.6,0-6.3-1.9-6.3-6.4V56.6c0-0.3,0.1-0.4,0.4-0.4h1.9c0.2,0,0.4,0.1,0.4,0.4l0.3,4.4h4.7c0.3,0,0.4,0.1,0.4,0.4v1.8
				c0,0.3-0.1,0.4-0.4,0.4h-4.7v9.7C267.3,75.6,268.6,77,270.8,77z"/>
		</g>
		<g>
			<path class="st48" d="M146.2,94.8c-2.1,0-3.7-1.2-3.7-3.5V88c0-2.3,1.6-3.5,3.7-3.5c1.1,0,2.1,0.3,3,1c0.1,0.1,0.1,0.1,0,0.2
				l-0.4,0.7c-0.1,0.1-0.1,0.1-0.2,0c-0.7-0.5-1.5-0.8-2.3-0.8c-1.6,0-2.5,0.9-2.5,2.4v3.4c0,1.4,0.9,2.4,2.5,2.4
				c0.9,0,1.8-0.3,2.6-0.9c0.1-0.1,0.2-0.1,0.2,0l0.5,0.6c0.1,0.1,0.1,0.2,0,0.2C148.5,94.5,147.3,94.8,146.2,94.8z"/>
			<path class="st48" d="M155.9,94.8c-2.4,0-3.8-1.4-3.8-3.7v-3c0-2.3,1.5-3.7,3.8-3.7s3.8,1.4,3.8,3.7v3
				C159.7,93.4,158.2,94.8,155.9,94.8z M155.9,93.7c1.7,0,2.6-1,2.6-2.5v-3c0-1.6-0.9-2.6-2.6-2.6s-2.6,1-2.6,2.6v3
				C153.3,92.8,154.2,93.7,155.9,93.7z"/>
			<path class="st48" d="M166.3,94.8c-1.4,0-2.4-0.4-3.5-1.3c-0.1-0.1-0.1-0.1,0-0.2l0.5-0.7c0.1-0.1,0.1-0.1,0.2,0
				c1,0.7,1.8,1.1,2.9,1.1c1.3,0,2.4-0.5,2.4-1.7c0-1.2-1-1.5-2.6-1.9c-1.7-0.4-3.3-1.1-3.3-3c0-1.8,1.7-2.6,3.6-2.6
				c1.2,0,2.2,0.3,3.3,1.1c0.1,0.1,0.1,0.1,0,0.2l-0.5,0.7c-0.1,0.1-0.1,0.1-0.2,0c-0.9-0.6-1.8-0.9-2.7-0.9c-1.3,0-2.3,0.5-2.3,1.6
				c0,1.1,1,1.4,2.5,1.8c1.9,0.4,3.5,1,3.5,3C169.9,94,168.2,94.8,166.3,94.8z"/>
			<path class="st48" d="M179.8,84.7c0.1,0,0.2,0.1,0.2,0.2v0.8c0,0.1-0.1,0.2-0.2,0.2h-3v8.8c0,0.1-0.1,0.2-0.2,0.2h-0.9
				c-0.1,0-0.2-0.1-0.2-0.2v-8.8h-3c-0.1,0-0.2-0.1-0.2-0.2v-0.8c0-0.1,0.1-0.2,0.2-0.2H179.8z"/>
			<path class="st48" d="M181,94.7c-0.1,0-0.2-0.1-0.1-0.2l3.5-9.7c0-0.1,0.1-0.1,0.2-0.1h1.1c0.1,0,0.2,0,0.2,0.1l3.5,9.7
				c0,0.1,0,0.2-0.1,0.2h-0.9c-0.1,0-0.2,0-0.2-0.1l-0.9-2.5H183l-0.9,2.5c0,0.1-0.1,0.1-0.2,0.1H181z M183.3,91h3.5l-1.7-5H185
				L183.3,91z"/>
			<path class="st48" d="M202.5,94.7c-0.1,0-0.2,0-0.2-0.1l-2.8-3.8h-1.7v3.8c0,0.1-0.1,0.2-0.2,0.2h-0.9c-0.1,0-0.2-0.1-0.2-0.2
				v-9.7c0-0.1,0.1-0.2,0.2-0.2h3.2c2.2,0,3.5,1.1,3.5,3.1c0,1.6-1,2.7-2.6,2.9l2.8,3.8c0.1,0.1,0,0.2-0.1,0.2H202.5z M197.8,85.8
				v3.9h2.1c1.5,0,2.3-0.6,2.3-2c0-1.3-0.8-2-2.3-2H197.8z"/>
			<path class="st48" d="M208,94.5c0,0.1-0.1,0.2-0.2,0.2H207c-0.1,0-0.2-0.1-0.2-0.2v-9.7c0-0.1,0.1-0.2,0.2-0.2h0.9
				c0.1,0,0.2,0.1,0.2,0.2V94.5z"/>
			<path class="st48" d="M215.2,94.8c-2.1,0-3.7-1.2-3.7-3.5V88c0-2.3,1.6-3.5,3.7-3.5c1.1,0,2.1,0.3,3,1c0.1,0.1,0.1,0.1,0,0.2
				l-0.4,0.7c-0.1,0.1-0.1,0.1-0.2,0c-0.7-0.5-1.5-0.8-2.3-0.8c-1.6,0-2.5,0.9-2.5,2.4v3.4c0,1.4,0.9,2.4,2.5,2.4
				c0.9,0,1.8-0.3,2.6-0.9c0.1-0.1,0.2-0.1,0.2,0l0.5,0.6c0.1,0.1,0.1,0.2,0,0.2C217.5,94.5,216.3,94.8,215.2,94.8z"/>
			<path class="st48" d="M221,94.7c-0.1,0-0.2-0.1-0.1-0.2l3.5-9.7c0-0.1,0.1-0.1,0.2-0.1h1.1c0.1,0,0.2,0,0.2,0.1l3.5,9.7
				c0,0.1,0,0.2-0.1,0.2h-0.9c-0.1,0-0.2,0-0.2-0.1l-0.9-2.5H223l-0.9,2.5c0,0.1-0.1,0.1-0.2,0.1H221z M223.3,91h3.5l-1.7-5H225
				L223.3,91z"/>
			<path class="st48" d="M236.1,94.7c-0.1,0-0.2-0.1-0.2-0.2V94c0-0.1,0-0.1,0.1-0.2l2.7-2.9c1.3-1.4,2.3-2.5,2.3-3.7
				c0-0.8-0.5-1.6-1.8-1.6c-1.1,0-1.9,0.6-2.5,1.2c-0.1,0.1-0.2,0.1-0.2,0l-0.4-0.6c-0.1-0.1-0.1-0.2,0-0.2c0.7-0.8,1.6-1.5,3.1-1.5
				c1.8,0,3,1,3,2.7c0,1.4-1,2.6-2.5,4.2c-0.5,0.5-1.2,1.3-2.1,2.1h4.6c0.1,0,0.2,0.1,0.2,0.2v0.8c0,0.1-0.1,0.2-0.2,0.2H236.1z"/>
			<path class="st48" d="M248.8,94.8c-1.7,0-3.4-1-3.4-3.3v-3.7c0-2.3,1.6-3.3,3.4-3.3c1.7,0,3.3,1,3.3,3.3v3.7
				C252.1,93.8,250.5,94.8,248.8,94.8z M248.8,93.7c1.1,0,2.2-0.6,2.2-2.1v-3.7c0-1.6-1-2.2-2.2-2.2c-1.1,0-2.2,0.6-2.2,2.2v3.7
				C246.6,93.1,247.6,93.7,248.8,93.7z"/>
			<path class="st48" d="M255,94.7c-0.1,0-0.2-0.1-0.2-0.2V94c0-0.1,0-0.1,0.1-0.2l2.7-2.9c1.3-1.4,2.3-2.5,2.3-3.7
				c0-0.8-0.5-1.6-1.8-1.6c-1.1,0-1.9,0.6-2.5,1.2c-0.1,0.1-0.2,0.1-0.2,0l-0.4-0.6c-0.1-0.1-0.1-0.2,0-0.2c0.7-0.8,1.6-1.5,3.1-1.5
				c1.8,0,3,1,3,2.7c0,1.4-1,2.6-2.5,4.2c-0.5,0.5-1.2,1.3-2.1,2.1h4.6c0.1,0,0.2,0.1,0.2,0.2v0.8c0,0.1-0.1,0.2-0.2,0.2H255z"/>
			<path class="st48" d="M267.7,94.8c-1.7,0-3.4-1-3.4-3.3v-3.7c0-2.3,1.6-3.3,3.4-3.3c1.7,0,3.3,1,3.3,3.3v3.7
				C271.1,93.8,269.5,94.8,267.7,94.8z M267.7,93.7c1.1,0,2.2-0.6,2.2-2.1v-3.7c0-1.6-1-2.2-2.2-2.2c-1.1,0-2.2,0.6-2.2,2.2v3.7
				C265.6,93.1,266.6,93.7,267.7,93.7z"/>
		</g>
	</g>
</g>
</svg>
